<?xml version="1.0" encoding="utf-8"?>
<!-- Generator: Adobe Illustrator 27.2.0, SVG Export Plug-In . SVG Version: 6.00 Build 0)  -->
<svg version="1.1" id="Layer_1" xmlns="http://www.w3.org/2000/svg" xmlns:xlink="http://www.w3.org/1999/xlink" x="0px" y="0px"
	 viewBox="0 0 70 70" style="enable-background:new 0 0 70 70;" xml:space="preserve">
<style type="text/css">
	.st0{fill:#FFFFFF;}
</style>
<g>
	<path class="st0" d="M59.3,40.6h-18c-0.4,0-0.7,0.3-0.7,0.7v18c0,0.4,0.3,0.7,0.7,0.7h3.9c0.4,0,0.7-0.3,0.7-0.7V46.6
		c0-0.4,0.3-0.7,0.7-0.7h12.7c0.4,0,0.7-0.3,0.7-0.7v-3.9C60,40.9,59.7,40.6,59.3,40.6z"/>
	<path class="st0" d="M28.7,40.6h-18c-0.4,0-0.7,0.3-0.7,0.7v3.9c0,0.4,0.3,0.7,0.7,0.7h12.7c0.4,0,0.7,0.3,0.7,0.7v12.7
		c0,0.4,0.3,0.7,0.7,0.7h3.9c0.4,0,0.7-0.3,0.7-0.7v-18C29.4,40.9,29.1,40.6,28.7,40.6z"/>
	<path class="st0" d="M59.3,24.1H46.6c-0.4,0-0.7-0.3-0.7-0.7V10.7c0-0.4-0.3-0.7-0.7-0.7h-3.9c-0.4,0-0.7,0.3-0.7,0.7v18
		c0,0.4,0.3,0.7,0.7,0.7h18c0.4,0,0.7-0.3,0.7-0.7v-3.9C60,24.5,59.7,24.1,59.3,24.1z"/>
	<path class="st0" d="M28.7,10h-3.9c-0.4,0-0.7,0.3-0.7,0.7v12.7c0,0.4-0.3,0.7-0.7,0.7H10.7c-0.4,0-0.7,0.3-0.7,0.7v3.9
		c0,0.4,0.3,0.7,0.7,0.7h18c0.4,0,0.7-0.3,0.7-0.7v-18C29.4,10.3,29.1,10,28.7,10z"/>
</g>
</svg>
