<?xml version="1.0" encoding="utf-8"?>
<!-- Generator: Adobe Illustrator 27.2.0, SVG Export Plug-In . SVG Version: 6.00 Build 0)  -->
<svg version="1.1" id="Layer_1" xmlns="http://www.w3.org/2000/svg" xmlns:xlink="http://www.w3.org/1999/xlink" x="0px" y="0px"
	 viewBox="0 0 70 70" style="enable-background:new 0 0 70 70;" xml:space="preserve">
<style type="text/css">
	.st0{fill:#FFFFFF;}
</style>
<path class="st0" d="M19.1,29.4l-5.6-2c-0.2-0.1-0.4-0.2-0.4-0.4c-0.1-0.2-0.1-0.4,0-0.6c3.4-8.8,12-15,22-15
	c6.4,0,12.1,2.5,16.4,6.6c0.3,0.3,0.8,0.3,1.1,0l1.8-1.8c0.2-0.2,0.5-0.3,0.8-0.2c0.3,0.1,0.5,0.3,0.5,0.6L57,27.8
	c0,0.2-0.1,0.5-0.2,0.6c-0.2,0.2-0.4,0.2-0.6,0.2L45,27c-0.3,0-0.5-0.2-0.6-0.5s0-0.6,0.2-0.8l1.5-1.5c0.2-0.1,0.2-0.4,0.2-0.6
	s-0.1-0.4-0.2-0.6c-2.9-2.7-6.7-4.3-10.9-4.3c-6.8,0-12.6,4.2-15,10.1C19.9,29.3,19.5,29.5,19.1,29.4z M56.6,42.6l-5.6-2
	c-0.4-0.1-0.8,0.1-1,0.4c-2.4,5.9-8.2,10.1-15,10.1c-4,0-7.7-1.5-10.5-3.9c-0.2-0.1-0.3-0.3-0.3-0.6c0-0.2,0.1-0.4,0.2-0.6l1.6-1.5
	c0.2-0.2,0.3-0.5,0.2-0.8c-0.1-0.3-0.3-0.5-0.6-0.5l-11.2-1.6c-0.2,0-0.5,0-0.6,0.2c-0.2,0.2-0.3,0.4-0.2,0.6l1.3,11.2
	c0,0.3,0.2,0.5,0.5,0.6s0.6,0,0.8-0.2l1.8-1.7c0.3-0.3,0.8-0.3,1.1,0c4.2,3.9,9.8,6.2,16,6.2c10,0,18.6-6.2,22-15
	c0.1-0.2,0.1-0.4,0-0.6C56.9,42.8,56.8,42.7,56.6,42.6z"/>
</svg>
