<?xml version="1.0" encoding="utf-8"?>
<!-- Generator: Adobe Illustrator 27.2.0, SVG Export Plug-In . SVG Version: 6.00 Build 0)  -->
<svg version="1.1" id="Layer_1" xmlns="http://www.w3.org/2000/svg" xmlns:xlink="http://www.w3.org/1999/xlink" x="0px" y="0px"
	 viewBox="0 0 70 70" style="enable-background:new 0 0 70 70;" xml:space="preserve">
<style type="text/css">
	.st0{fill:#FFFFFF;}
</style>
<path class="st0" d="M22.9,30.1C24.9,25.3,29.5,22,35,22c3.4,0,6.5,1.3,8.8,3.5c0.1,0.1,0.2,0.3,0.2,0.4c0,0.2-0.1,0.3-0.2,0.5
	l-1.2,1.2c-0.2,0.2-0.2,0.4-0.2,0.6c0.1,0.2,0.3,0.4,0.5,0.4l9,1.3c0.2,0,0.4,0,0.5-0.2c0.1-0.1,0.2-0.3,0.2-0.5l-1.1-9
	c0-0.2-0.2-0.4-0.4-0.5c-0.2-0.1-0.5,0-0.6,0.1l-1.5,1.4c-0.2,0.2-0.6,0.2-0.9,0c-3.4-3.3-8.1-5.3-13.2-5.3c-8.1,0-15,5-17.8,12.1
	c-0.1,0.2-0.1,0.3,0,0.5c0.1,0.2,0.2,0.3,0.4,0.3l4.5,1.6C22.5,30.6,22.8,30.4,22.9,30.1z"/>
<path class="st0" d="M52.4,41.1l-4.5-1.6c-0.3-0.1-0.7,0-0.8,0.4C45.1,44.7,40.5,48,35,48c-3.2,0-6.2-1.2-8.5-3.1
	c-0.1-0.1-0.2-0.3-0.2-0.5c0-0.2,0.1-0.3,0.2-0.5l1.3-1.2c0.2-0.2,0.2-0.4,0.2-0.6c-0.1-0.2-0.3-0.4-0.5-0.4l-9-1.3
	c-0.2,0-0.4,0-0.5,0.2c-0.1,0.1-0.2,0.3-0.2,0.5l1.1,9c0,0.2,0.2,0.4,0.4,0.5c0.2,0.1,0.5,0,0.6-0.1l1.4-1.4c0.2-0.2,0.6-0.2,0.9,0
	c3.4,3.1,7.9,5,12.9,5c8.1,0,15-5,17.8-12.1c0.1-0.2,0.1-0.3,0-0.5C52.7,41.3,52.5,41.2,52.4,41.1z"/>
</svg>
