<?xml version="1.0" encoding="utf-8"?>
<!-- Generator: Adobe Illustrator 27.2.0, SVG Export Plug-In . SVG Version: 6.00 Build 0)  -->
<svg version="1.1" id="Layer_1" xmlns="http://www.w3.org/2000/svg" xmlns:xlink="http://www.w3.org/1999/xlink" x="0px" y="0px"
	 viewBox="0 0 70 70" style="enable-background:new 0 0 70 70;" xml:space="preserve">
<style type="text/css">
	.st0{fill:#FFFFFF;}
</style>
<g>
	<path class="st0" d="M35,31c-4.4,0-8,3.6-8,8s3.6,8,8,8s8-3.6,8-8C43.1,34.6,39.5,31,35,31z"/>
	<path class="st0" d="M57.7,22.5H47.1c-1.1,0-2-0.7-2.2-1.7l-1.2-4.9c-0.2-1-1.2-1.7-2.2-1.7H28.6c-1.1,0-2,0.8-2.2,1.8l-1,4.7
		c-0.2,1.1-1.2,1.8-2.2,1.8H12.3c-1.3,0-2.3,1-2.3,2.3v28.7c0,1.3,1,2.3,2.3,2.3h45.4c1.3,0,2.3-1,2.3-2.3V24.8
		C60,23.5,59,22.5,57.7,22.5z M17.2,32.3c-1.5,0-2.8-1.2-2.8-2.8c0-1.5,1.2-2.8,2.8-2.8c1.5,0,2.8,1.2,2.8,2.8
		C20,31,18.7,32.3,17.2,32.3z M35,50.7c-6.4,0-11.6-5.2-11.6-11.6S28.6,27.5,35,27.5s11.6,5.2,11.6,11.6S41.4,50.7,35,50.7z"/>
</g>
</svg>
