<?xml version="1.0" encoding="utf-8"?>
<!-- Generator: Adobe Illustrator 27.2.0, SVG Export Plug-In . SVG Version: 6.00 Build 0)  -->
<svg version="1.1" id="Layer_1" xmlns="http://www.w3.org/2000/svg" xmlns:xlink="http://www.w3.org/1999/xlink" x="0px" y="0px"
	 viewBox="0 0 70 70" style="enable-background:new 0 0 70 70;" xml:space="preserve">
<style type="text/css">
	.st0{fill:#FFFFFF;}
</style>
<path class="st0" d="M35,12.8c-14.2,0-25.8,11.6-25.8,25.8v12c0,1.7,1.4,3.1,3.1,3.1h0.6h1.5c0.5,0,0.8,0.4,0.8,0.8v1.9
	c0,0.5,0.4,0.8,0.8,0.8h3.3c1.7,0,3.1-1.4,3.1-3.1V41.8c0-1.7-1.4-3.1-3.1-3.1h-3.3c-0.5,0-0.8,0.4-0.8,0.8v1.9
	c0,0.5-0.4,0.8-0.8,0.8h-0.7c-0.5,0-0.8-0.4-0.8-0.8v-2.8c0-12.2,9.9-22.1,22.1-22.1s22.1,9.9,22.1,22.1v2.8c0,0.5-0.4,0.8-0.8,0.8
	h-0.7c-0.5,0-0.8-0.4-0.8-0.8v-1.9c0-0.5-0.4-0.8-0.8-0.8h-3.3c-1.7,0-3.1,1.4-3.1,3.1v12.3c0,1.7,1.4,3.1,3.1,3.1h3.3
	c0.5,0,0.8-0.4,0.8-0.8v-1.9c0-0.5,0.4-0.8,0.8-0.8h1.5h0h0.6c1.7,0,3.1-1.4,3.1-3.1v-12C60.8,24.4,49.2,12.8,35,12.8z"/>
</svg>
