<?xml version="1.0" encoding="utf-8"?>
<!-- Generator: Adobe Illustrator 27.2.0, SVG Export Plug-In . SVG Version: 6.00 Build 0)  -->
<svg version="1.1" id="Layer_1" xmlns="http://www.w3.org/2000/svg" xmlns:xlink="http://www.w3.org/1999/xlink" x="0px" y="0px"
	 viewBox="0 0 70 70" style="enable-background:new 0 0 70 70;" xml:space="preserve">
<style type="text/css">
	.st0{fill:#FFFFFF;}
</style>
<path class="st0" d="M41.1,21.2c-0.2-0.1-0.4-0.1-0.5,0.1c-0.2,0.1-0.3,0.3-0.3,0.5v4.3c0,0.2,0.1,0.4,0.3,0.5
	c3.1,1.9,5.2,5.3,5.2,9.2c0,5.9-4.8,10.7-10.8,10.7c-5.9,0-10.7-4.8-10.7-10.7c0-3.9,2.1-7.3,5.2-9.2c0.2-0.1,0.3-0.3,0.3-0.5v-4.3
	c0-0.2-0.1-0.4-0.3-0.5c-0.2-0.1-0.4-0.1-0.5-0.1c-5.6,2.4-9.6,8-9.6,14.5c0,8.7,7,15.7,15.7,15.7c8.7,0,15.7-7,15.7-15.7
	C50.7,29.2,46.8,23.6,41.1,21.2z"/>
<path class="st0" d="M33.1,30.8h3.8c0.3,0,0.6-0.3,0.6-0.6V17.6c0-0.3-0.3-0.6-0.6-0.6h-3.8c-0.3,0-0.6,0.3-0.6,0.6v12.6
	C32.5,30.5,32.8,30.8,33.1,30.8z"/>
</svg>
