<?xml version="1.0" encoding="utf-8"?>
<!-- Generator: Adobe Illustrator 27.2.0, SVG Export Plug-In . SVG Version: 6.00 Build 0)  -->
<svg version="1.1" id="Layer_1" xmlns="http://www.w3.org/2000/svg" xmlns:xlink="http://www.w3.org/1999/xlink" x="0px" y="0px"
	 viewBox="0 0 70 70" style="enable-background:new 0 0 70 70;" xml:space="preserve">
<style type="text/css">
	.st0{fill:#FFFFFF;}
</style>
<path class="st0" d="M54.1,12.7c-3.2-3.2-8.4-3.2-11.6,0l-7.1,7.1c-3,3-3.2,7.8-0.5,11c0.2,0.2,0.2,0.5,0,0.8l-3.3,3.3
	c-0.2,0.2-0.5,0.2-0.8,0c-3.2-2.6-8-2.5-11,0.5l-7.1,7.1c-3.2,3.2-3.2,8.4,0,11.6l3.2,3.2c3.2,3.2,8.4,3.2,11.6,0l7.1-7.1
	c3-3,3.2-7.8,0.5-11c-0.2-0.2-0.2-0.5,0-0.8l3.3-3.3c0.2-0.2,0.5-0.2,0.8,0c3.2,2.6,8,2.5,11-0.5l7.1-7.1c3.2-3.2,3.2-8.4,0-11.6
	L54.1,12.7z M31,46.6l-7.1,7.1c-1.2,1.2-3.1,1.2-4.3,0l-3.2-3.2c-1.2-1.2-1.2-3.1,0-4.3l7.1-7.1c0.9-0.9,2.3-1.1,3.4-0.6
	c0.2,0.1,0.3,0.2,0.3,0.4c0,0.2,0,0.4-0.2,0.5l-2.6,2.6c-0.5,0.5-0.5,1.4,0,2l1.6,1.6c0.5,0.5,1.4,0.5,2,0l2.6-2.6
	c0.1-0.1,0.3-0.2,0.5-0.2c0.2,0,0.3,0.1,0.4,0.3C32.1,44.3,31.9,45.6,31,46.6z M53.7,23.8L46.6,31c-0.9,0.9-2.3,1.1-3.4,0.6
	c-0.2-0.1-0.3-0.2-0.3-0.4c0-0.2,0-0.4,0.2-0.5l2.6-2.6c0.5-0.5,0.5-1.4,0-2l-1.6-1.6c-0.5-0.5-1.4-0.5-2,0L39.3,27
	c-0.1,0.1-0.3,0.2-0.5,0.2c-0.2,0-0.3-0.1-0.4-0.3c-0.5-1.1-0.3-2.5,0.6-3.4l7.1-7.1c1.2-1.2,3.1-1.2,4.3,0l3.2,3.2
	C54.9,20.7,54.9,22.7,53.7,23.8z"/>
</svg>
