<?xml version="1.0" encoding="utf-8"?>
<!-- Generator: Adobe Illustrator 27.2.0, SVG Export Plug-In . SVG Version: 6.00 Build 0)  -->
<svg version="1.1" id="Layer_1" xmlns="http://www.w3.org/2000/svg" xmlns:xlink="http://www.w3.org/1999/xlink" x="0px" y="0px"
	 viewBox="0 0 70 70" style="enable-background:new 0 0 70 70;" xml:space="preserve">
<style type="text/css">
	.st0{fill:#FFFFFF;}
</style>
<path class="st0" d="M57.9,34.3c0-0.2-0.1-0.3-0.2-0.4c-0.1-0.1-0.3-0.2-0.4-0.2H55c-0.3,0-0.6,0.3-0.6,0.6v1c0,0.3-0.3,0.6-0.6,0.6
	h-2.2c-0.3,0-0.6-0.3-0.6-0.6V24.6c0-4.5-1.8-8.6-4.7-11.5C46,13,45.8,12.9,45.5,13c-0.2,0.1-0.4,0.3-0.4,0.6v12.3c0,1.1-0.9,2-2,2
	c-1.1,0-2-0.9-2-2V10.2c0-0.3-0.2-0.5-0.4-0.6C39.9,9.3,39,9,38,8.9c-0.2,0-0.4,0-0.5,0.1c-0.1,0.1-0.2,0.3-0.2,0.5v16.4
	c0,1.1-0.9,2-2,2c-1.1,0-2-0.9-2-2V9.5c0-0.2-0.1-0.3-0.2-0.4c-0.1-0.1-0.3-0.2-0.5-0.1c-0.9,0.2-1.8,0.4-2.6,0.7
	c-0.2,0.1-0.4,0.3-0.4,0.6v15.7c0,1.1-0.9,2-2,2c-1.1,0-2-0.9-2-2V13.6c0-0.2-0.2-0.5-0.4-0.6c-0.2-0.1-0.5,0-0.7,0.1
	c-2.9,2.9-4.7,7-4.7,11.5v10.6c0,0.4-0.3,0.7-0.7,0.7h-2.1c-0.4,0-0.7-0.3-0.7-0.7v-0.8c0-0.4-0.3-0.7-0.7-0.7h-2.1
	c-0.4,0-0.7,0.3-0.7,0.7v1.5v3v2.6l0,0.3c0,0.2,3.2,20.1,22.5,20.1c19.2,0,22.4-19.9,22.5-20.1l0-3.7l0,0.9v-3l0-0.9L57.9,34.3z
	 M54.4,41.3c-0.3,1.7-3.3,17.1-19,17.1c-15.7,0-18.7-15.4-19-17.1v-1.8c0-0.4,0.3-0.7,0.7-0.7h2.2c0.3,0,0.6,0.3,0.6,0.6
	c0,8.8,7,16,15.5,16c8.5,0,15.5-7.2,15.5-16c0-0.3,0.3-0.6,0.6-0.6h2.2c0.3,0,0.6,0.3,0.6,0.6V41.3z"/>
</svg>
