<?xml version="1.0" encoding="utf-8"?>
<!-- Generator: Adobe Illustrator 27.2.0, SVG Export Plug-In . SVG Version: 6.00 Build 0)  -->
<svg version="1.1" id="Layer_1" xmlns="http://www.w3.org/2000/svg" xmlns:xlink="http://www.w3.org/1999/xlink" x="0px" y="0px"
	 viewBox="0 0 70 70" style="enable-background:new 0 0 70 70;" xml:space="preserve">
<style type="text/css">
	.st0{fill:#FFFFFF;}
</style>
<path class="st0" d="M60.8,12.1H9.2c-0.8,0-1.5,0.7-1.5,1.5v32.1v1.7v1.5c0,0.8,0.7,1.5,1.5,1.5h18.1c0.4,0,0.8,0.4,0.8,0.8V60
	c0,0.4,0.4,0.8,0.8,0.8h12.4c0.4,0,0.8-0.4,0.8-0.8v-8.7c0-0.4,0.4-0.8,0.8-0.8h18.1c0.8,0,1.5-0.7,1.5-1.5v-1.5v-1.7V13.6
	C62.3,12.8,61.6,12.1,60.8,12.1z M59.4,43.7c0,0.4-0.4,0.8-0.8,0.8H11.4c-0.4,0-0.8-0.4-0.8-0.8V15.8c0-0.4,0.4-0.8,0.8-0.8h47.1
	c0.4,0,0.8,0.4,0.8,0.8V43.7z"/>
</svg>
