<?xml version="1.0" encoding="utf-8"?>
<!-- Generator: Adobe Illustrator 27.2.0, SVG Export Plug-In . SVG Version: 6.00 Build 0)  -->
<svg version="1.1" id="Layer_1" xmlns="http://www.w3.org/2000/svg" xmlns:xlink="http://www.w3.org/1999/xlink" x="0px" y="0px"
	 viewBox="0 0 70 70" style="enable-background:new 0 0 70 70;" xml:space="preserve">
<style type="text/css">
	.st0{fill:#FFFFFF;}
</style>
<path class="st0" d="M35.5,11.3c-0.3-0.2-0.7-0.2-1,0L10.8,29.5c-0.3,0.2-0.4,0.6-0.3,0.9c0.1,0.3,0.4,0.6,0.8,0.6h4.3
	c0.5,0,0.9,0.4,0.9,0.9v25.2c0,0.5,0.4,0.9,0.9,0.9h10.8c0.5,0,0.9-0.4,0.9-0.9V39.7c0-0.5,0.4-0.9,0.9-0.9h10.4
	c0.5,0,0.9,0.4,0.9,0.9v17.4c0,0.5,0.4,0.9,0.9,0.9h10.8c0.5,0,0.9-0.4,0.9-0.9V31.9c0-0.5,0.4-0.9,0.9-0.9h4.3
	c0.4,0,0.7-0.2,0.8-0.6c0.1-0.3,0-0.7-0.3-0.9L35.5,11.3z"/>
</svg>
