<?xml version="1.0" encoding="utf-8"?>
<!-- Generator: Adobe Illustrator 27.2.0, SVG Export Plug-In . SVG Version: 6.00 Build 0)  -->
<svg version="1.1" id="Layer_1" xmlns="http://www.w3.org/2000/svg" xmlns:xlink="http://www.w3.org/1999/xlink" x="0px" y="0px"
	 viewBox="0 0 70 70" style="enable-background:new 0 0 70 70;" xml:space="preserve">
<style type="text/css">
	.st0{fill:#FFFFFF;}
</style>
<g>
	<path class="st0" d="M28.7,10h-18c-0.4,0-0.7,0.3-0.7,0.7v18c0,0.4,0.3,0.7,0.7,0.7h3.9c0.4,0,0.7-0.3,0.7-0.7V16
		c0-0.4,0.3-0.7,0.7-0.7h12.7c0.4,0,0.7-0.3,0.7-0.7v-3.9C29.4,10.3,29.1,10,28.7,10z"/>
	<path class="st0" d="M59.3,10h-18c-0.4,0-0.7,0.3-0.7,0.7v3.9c0,0.4,0.3,0.7,0.7,0.7H54c0.4,0,0.7,0.3,0.7,0.7v12.7
		c0,0.4,0.3,0.7,0.7,0.7h3.9c0.4,0,0.7-0.3,0.7-0.7v-18C60,10.3,59.7,10,59.3,10z"/>
	<path class="st0" d="M28.7,54.7H16c-0.4,0-0.7-0.3-0.7-0.7V41.3c0-0.4-0.3-0.7-0.7-0.7h-3.9c-0.4,0-0.7,0.3-0.7,0.7v18
		c0,0.4,0.3,0.7,0.7,0.7h18c0.4,0,0.7-0.3,0.7-0.7v-3.9C29.4,55,29.1,54.7,28.7,54.7z"/>
	<path class="st0" d="M59.3,40.6h-3.9c-0.4,0-0.7,0.3-0.7,0.7V54c0,0.4-0.3,0.7-0.7,0.7H41.3c-0.4,0-0.7,0.3-0.7,0.7v3.9
		c0,0.4,0.3,0.7,0.7,0.7h18c0.4,0,0.7-0.3,0.7-0.7v-18C60,40.9,59.7,40.6,59.3,40.6z"/>
</g>
</svg>
