<?xml version="1.0" encoding="utf-8"?>
<!-- Generator: Adobe Illustrator 27.2.0, SVG Export Plug-In . SVG Version: 6.00 Build 0)  -->
<svg version="1.1" id="Layer_1" xmlns="http://www.w3.org/2000/svg" xmlns:xlink="http://www.w3.org/1999/xlink" x="0px" y="0px"
	 viewBox="0 0 70 70" style="enable-background:new 0 0 70 70;" xml:space="preserve">
<style type="text/css">
	.st0{fill:#FFFFFF;}
</style>
<g>
	<path class="st0" d="M33.8,47.1L27,40.3C27.5,43.8,30.2,46.6,33.8,47.1z"/>
	<path class="st0" d="M34.9,31.1c-0.5,0-1,0.1-1.5,0.1l9.4,9.4c0.1-0.5,0.1-1,0.1-1.5C43,34.7,39.4,31.1,34.9,31.1z"/>
	<path class="st0" d="M34.9,50.7c-6.4,0-11.6-5.2-11.6-11.6c0-0.8,0.1-1.5,0.2-2.3l-5-5c-0.4,0.3-0.9,0.4-1.5,0.4
		c-1.5,0-2.8-1.2-2.8-2.8c0-0.5,0.2-1.1,0.4-1.5l-4.3-4.3c-0.2,0.3-0.3,0.8-0.3,1.2v28.7c0,1.3,1,2.3,2.3,2.3h30.2l-5.2-5.2
		C36.5,50.7,35.7,50.7,34.9,50.7z"/>
	<path class="st0" d="M34.9,27.5c6.4,0,11.6,5.2,11.6,11.6c0,1.5-0.3,3-0.8,4.3L58,55.7c1.1-0.2,2-1.1,2-2.3V24.8
		c0-1.3-1-2.3-2.3-2.3H47c-1.1,0-2-0.7-2.2-1.7l-1.2-4.9c-0.2-1-1.2-1.7-2.2-1.7H28.5c-1.1,0-2,0.8-2.2,1.8l-1,4.7
		c-0.1,0.6-0.5,1.1-1,1.5l6.2,6.2C31.9,27.8,33.4,27.5,34.9,27.5z"/>
	<path class="st0" d="M11.7,13.7c-1-1-2.6-1-3.5,0c-1,1-1,2.6,0,3.5l47.3,47.3c0.5,0.5,1.1,0.7,1.8,0.7s1.3-0.2,1.8-0.7
		c1-1,1-2.6,0-3.5L11.7,13.7z"/>
</g>
</svg>
