<?xml version="1.0" encoding="utf-8"?>
<!-- Generator: Adobe Illustrator 27.2.0, SVG Export Plug-In . SVG Version: 6.00 Build 0)  -->
<svg version="1.1" id="Layer_1" xmlns="http://www.w3.org/2000/svg" xmlns:xlink="http://www.w3.org/1999/xlink" x="0px" y="0px"
	 viewBox="0 0 70 70" style="enable-background:new 0 0 70 70;" xml:space="preserve">
<style type="text/css">
	.st0{fill:#FFFFFF;}
</style>
<g>
	<path class="st0" d="M51,39.4c0-0.3,0.3-0.6,0.6-0.6h2.2c0.3,0,0.6,0.3,0.6,0.6v1.8c-0.1,0.5-0.4,2.3-1.3,4.5l2.6,2.6
		c1.7-3.7,2.2-6.6,2.2-6.7l0-3.7l0,0.9v-3l0-0.9l0-0.7c0-0.2-0.1-0.3-0.2-0.4c-0.1-0.1-0.3-0.2-0.4-0.2h-2.2c-0.3,0-0.6,0.3-0.6,0.6
		v1c0,0.3-0.3,0.6-0.6,0.6h-2.2c-0.3,0-0.6-0.3-0.6-0.6V24.6c0-4.5-1.8-8.6-4.7-11.5c-0.2-0.2-0.4-0.2-0.7-0.1
		c-0.2,0.1-0.4,0.3-0.4,0.6v12.3c0,1.1-0.9,2-2,2c-1.1,0-2-0.9-2-2V10.2c0-0.3-0.2-0.5-0.4-0.6C40,9.3,39,9,38.1,8.8
		c-0.2,0-0.4,0-0.5,0.1c-0.1,0.1-0.2,0.3-0.2,0.5v16.4c0,1.1-0.9,2-2,2c0,0-0.1,0-0.1,0l15.3,15.3C50.8,42,51,40.7,51,39.4z"/>
	<path class="st0" d="M35.5,58.3c-15.7,0-18.7-15.4-19-17.1v-1.8c0-0.4,0.3-0.7,0.7-0.7h2.2c0.3,0,0.6,0.3,0.6,0.6
		c0,8.8,7,16,15.5,16c3.3,0,6.3-1.1,8.9-2.9L20,28.1v7c0,0.4-0.3,0.7-0.7,0.7h-2.1c-0.4,0-0.7-0.3-0.7-0.7v-0.8
		c0-0.4-0.3-0.7-0.7-0.7h-2.1c-0.4,0-0.7,0.3-0.7,0.7v7.1l0,0.3c0,0.2,3.2,20.1,22.5,20.1c5.9,0,10.3-1.9,13.6-4.5l-2.5-2.5
		C43.9,56.9,40.3,58.3,35.5,58.3z"/>
	<path class="st0" d="M25.7,13.6c0-0.2-0.2-0.5-0.4-0.6c-0.2-0.1-0.5,0-0.7,0.1c-0.7,0.7-1.3,1.5-1.9,2.3l2.9,2.9V13.6z"/>
	<path class="st0" d="M33.4,25.9V9.4c0-0.2-0.1-0.3-0.2-0.4c-0.1-0.1-0.3-0.2-0.5-0.1c-0.9,0.2-1.8,0.4-2.6,0.7
		c-0.2,0.1-0.4,0.3-0.4,0.6v12.1l3.7,3.7C33.4,26,33.4,25.9,33.4,25.9z"/>
	<path class="st0" d="M13.6,10.5c-1-1-2.6-1-3.5,0c-1,1-1,2.6,0,3.5l47.3,47.3c0.5,0.5,1.1,0.7,1.8,0.7s1.3-0.2,1.8-0.7
		c1-1,1-2.6,0-3.5L13.6,10.5z"/>
</g>
</svg>
